
IMDB Link/Rating
 
http://www.imdb.com/title/tt0980970/

6.7/10

Source Used

The Chronicles of Narnia - The Voyage of the Dawn Treader TS XViD - IMAGiNE (Thanks)

General

Complete name : The Chronicles of Narnia - The Voyage of the Dawn Treader TS x264-Jucified (400MB).mp4
Format : MPEG-4
Format profile : Base Media
Codec ID : isom
File size : 400 MiB
Duration : 1h 45mn
Overall bit rate : 532 Kbps

Video

Format : AVC
Format/Info : Advanced Video Codec
Format profile : High@L4.1
Format settings, CABAC : Yes
Format settings, ReFrames : 2 frames
Codec ID : avc1
Codec ID/Info : Advanced Video Coding
Duration : 1h 45mn
Bit rate mode : Variable
Bit rate : 497 Kbps
Maximum bit rate : 1 513 Kbps
Width : 700 pixels
Height : 328 pixels
Display aspect ratio : 2.2
Frame rate mode : Constant
Frame rate : 25.000 fps
Resolution : 24 bits
Colorimetry : 4:2:0
Scan type : Progressive
Bits/(Pixel*Frame) : 0.087
Stream size : 374 MiB (93%)

Audio

Format : AAC
Format/Info : Advanced Audio Codec
Format version : Version 4
Format profile : LC
Format settings, SBR : Yes
Format settings, PS : No
Codec ID : 40
Duration : 1h 45mn
Bit rate mode : Variable
Bit rate : 32.0 Kbps
Maximum bit rate : 35.8 Kbps
Channel(s) : 2 channels
Channel positions : L R
Sampling rate : 44.1 KHz
Resolution : 16 bits
Stream size : 24.1 MiB (6%)

 
http://shareimage.ro/images/p0e9r3jynfun953x10pg.png
 
http://shareimage.ro/images/u5jmmpv499urrj7n1fw.png
 
http://shareimage.ro/images/zjphzh45l3206388gto.png
 
http://shareimage.ro/images/un24tmr31cko53jfadn.png
 
http://img10.imageshack.us/img10/1433/vlcsnap00004x.png
 
http://img576.imageshack.us/img576/7074/vlcsnap00002l.png
 
http://img221.imageshack.us/img221/9522/vlcsnap00001q.png